<svg xmlns="http://www.w3.org/2000/svg" width="388.547" height="322.554" viewBox="0 0 388.547 322.554"><defs><style>.a{fill:#e6e6e6;}.b{fill:#fbbebe;}.c{fill:#3cb54a;}.d,.f{fill:#aaa;}.e{fill:#fff;}.f{opacity:0.46;}</style></defs><g transform="translate(0 0)"><ellipse class="a" cx="194.273" cy="11.208" rx="194.273" ry="11.208" transform="translate(0 300.138)"/><path d="M816.4,335.362s-5.792-2.068-9.515,6.206a163.15,163.15,0,0,1-9.515,17.376l3.31.827s.828-5.792,2.9-6.619l-.828,7.447s24.822,8.688,35.992-.827l-.414-2.9s1.655.414,1.655,2.9l1.241-1.241a22.237,22.237,0,0,0-4.964-5.792c-2.444-2.172-3.284-6.305-3.572-8.889a10.754,10.754,0,0,0-2.476-5.858C827.739,335.124,823.231,332.076,816.4,335.362Z" transform="translate(-510.927 -226.862)"/><path class="b" d="M581.286,382.073l5.416,6.893,3.447-3.939-2.954-4.924Z" transform="translate(-309.824 -202.594)"/><path class="b" d="M574.821,611l-1.969,10.339,4.924,2.462,3.447-2.462V611Z" transform="translate(-305.328 -325.66)"/><path class="b" d="M643.565,611l1.97,10.339-4.923,2.462-3.447-2.462V611Z" transform="translate(-339.607 -325.66)"/><path class="c" d="M588.538,411.733l-6.893,49.237L571.8,505.775l11.817,1.477,9.355-41.851,11.817-35.45-1.477,42.343-2.461,34.958h8.862l6.4-47.267,7.078-35.142L623,411.733Z" transform="translate(-304.766 -219.452)"/><path d="M749.57,733.527s-2.462-2.954-3.939-1.477-4.924,7.385-4.924,7.385-7.878,4.431-1.477,5.416,8.37,0,8.37-.492a7.22,7.22,0,0,1,.985-1.969l2.462.492,3.447-.985s1.477-9.072,0-8.721S750.063,735,749.57,733.527Z" transform="translate(-478.6 -438.834)"/><path d="M825.339,733.527s2.462-2.954,3.939-1.477,4.924,7.385,4.924,7.385,7.878,4.431,1.477,5.416-8.37,0-8.37-.492a7.221,7.221,0,0,0-.985-1.969l-2.462.492-3.447-.985s-1.477-9.072,0-8.721S824.847,735,825.339,733.527Z" transform="translate(-522.858 -438.834)"/><circle class="b" cx="9.847" cy="9.847" r="9.847" transform="translate(297.312 114.241)"/><path class="b" d="M839.1,383.546s-.985,8.37-.493,10.34,1.477,4.924,1.477,4.924l-15.756-2.954s4.431-9.355,3.447-10.832S839.1,383.546,839.1,383.546Z" transform="translate(-525.292 -253.303)"/><path class="d" d="M829.9,404.915l-16.248-3.446L804.3,458.584a21.33,21.33,0,0,1,12.8.492c6.893,2.462,16.248,0,16.248,0l-1.969-53.668Z" transform="translate(-514.616 -262.856)"/><path d="M797.854,391.783l-5.771,3.046-7.386,1.477-7.878,18.71.985,13.294s-8.37,15.263-9.355,23.633c0,0,.985,12.8,17.233,12.309l10.832-30.034s4.431-22.649,0-29.05C796.514,405.169,799.686,393.168,797.854,391.783Z" transform="translate(-495.51 -257.693)"/><path d="M776.39,401.159l-1.594-.272-1.36.272a15.9,15.9,0,0,0-7.385,3.939c-3.939,3.446-17.233,14.279-18.217,17.233s-.492,7.878.985,10.832a57.427,57.427,0,0,0,4.431,6.893l1.477,3.446,8.37-2.462s-5.416-10.34-4.923-14.771l9.847-7.878Z" transform="translate(-484.248 -262.545)"/><path d="M851.972,396.549l7.438,9.191,3.939,4.924-4.924,16.74-2.462,14.279s5.908,22.649.985,29.542c0,0-2.954,3.447-3.939-.492s-.985-22.649-.985-22.649-3.939-24.618-1.969-31.019S849.95,397.7,851.972,396.549Z" transform="translate(-538.712 -260.234)"/><path class="b" d="M869.571,548.51v4.923s-.985,16.248,3.939,14.279,1.477-14.279,1.477-14.279l-.492-5.416Z" transform="translate(-549.364 -340.966)"/><path d="M817.782,357.111a28.968,28.968,0,0,0,8.781-9.545s6.873,7.636,11.073,8.018.382-9.163.382-9.163l-7.636-1.909-7.255.764-5.727,3.818Z" transform="translate(-521.601 -232.498)"/><path d="M680.536,318.954l3.939,1.477.493,4.924,1.969,30.034-.985,22.649-7.385.493L676.1,353.42l-.984-27.572Z" transform="translate(-359.837 -170.001)"/><path class="c" d="M436.816,178.643h-1.711V131.779a27.124,27.124,0,0,0-27.123-27.124H308.694a27.124,27.124,0,0,0-27.124,27.124v257.1A27.123,27.123,0,0,0,308.694,416h99.288a27.124,27.124,0,0,0,27.124-27.124V212h1.711Z" transform="translate(-236.005 -104.655)"/><path class="e" d="M437.875,140.022V396.743A20.257,20.257,0,0,1,417.619,417H317.855A20.257,20.257,0,0,1,297.6,396.743V140.022a20.257,20.257,0,0,1,20.256-20.256h12.1a9.628,9.628,0,0,0,8.911,13.258h56.881a9.628,9.628,0,0,0,8.911-13.258h12.958a20.257,20.257,0,0,1,20.257,20.256Z" transform="translate(-244.547 -112.709)"/><path class="a" d="M209.891,427.919h-2.1l.7-40.982h.7Z" transform="translate(-110.753 -206.236)"/><path class="a" d="M384.864,413.994l3.387-5.234a78.462,78.462,0,0,0-3.475-8.133l-2.19,1.769,1.734-2.68c-1.653-3.253-2.953-5.3-2.953-5.3s-6.792,10.7-9.061,22.035l4.346,6.716-4.811-3.886a31.743,31.743,0,0,0-.264,3.981c0,13.421,4.383,24.3,9.79,24.3s9.79-10.88,9.79-24.3a41.8,41.8,0,0,0-2.24-12.54Z" transform="translate(-283.978 -259.095)"/><path class="a" d="M326.85,427.919h-2.1l.7-40.982h.7Z" transform="translate(-173.092 -206.236)"/><path class="a" d="M501.823,413.994l3.387-5.234a78.45,78.45,0,0,0-3.475-8.133l-2.19,1.769,1.734-2.68c-1.652-3.253-2.953-5.3-2.953-5.3s-6.792,10.7-9.061,22.035l4.346,6.716-4.811-3.886a31.709,31.709,0,0,0-.264,3.981c0,13.421,4.383,24.3,9.79,24.3s9.79-10.88,9.79-24.3a41.8,41.8,0,0,0-2.24-12.54Z" transform="translate(-346.317 -259.095)"/><circle class="a" cx="19.278" cy="19.278" r="19.278" transform="translate(78.263 47.279)"/><path class="a" d="M261.106,365.473H256.78l1.442-84.5h1.442Z" transform="translate(-136.863 -149.756)"/><path class="a" d="M426.494,225.627l6.983-10.792a161.756,161.756,0,0,0-7.164-16.77l-4.515,3.647,3.575-5.526c-3.407-6.707-6.088-10.933-6.088-10.933s-14,22.069-18.683,45.435l8.961,13.849-9.92-8.012a65.457,65.457,0,0,0-.544,8.208c0,27.673,9.038,50.107,20.187,50.107s20.187-22.433,20.187-50.107c0-8.579-1.941-17.554-4.618-25.857Z" transform="translate(-298.647 -147.614)"/><path class="c" d="M437.464,559.187v57.445a21.1,21.1,0,0,1-21.1,21.1h-103.9a21.1,21.1,0,0,1-21.1-21.1V564.787a99.345,99.345,0,0,1,146.1-5.6Z" transform="translate(-241.226 -331.29)"/><circle class="f" cx="29.518" cy="29.518" r="29.518" transform="translate(93.78 225.526)"/><circle cx="23.768" cy="23.768" r="23.768" transform="translate(99.53 231.277)"/><path class="e" d="M248.524,540.953l-8.377-10.77,4.871-3.789,3.966,5.1,13.4-14.143,4.48,4.244Z" transform="translate(-127.998 -275.746)"/></g></svg>