<svg xmlns="http://www.w3.org/2000/svg" width="92.992" height="57.321" viewBox="0 0 92.992 57.321"><defs><style>.a{fill:#fff;}</style></defs><g transform="translate(-578.29 -231.848)"><g transform="translate(578.29 273.421)"><path class="a" d="M583.354,334.946v-2.864q0-.432-.537-.39l-4.337.211-.19-.19v-1.253l.169-.169q.779.021,2.911.105t3.3.085q.968,0,2.016-.037t2.432-.105q1.385-.068,2.016-.09l.221.211v1.084l-.242.19-.905-.021q-.842-.021-1.921-.042t-1.722-.021a.7.7,0,0,0-.358.063.3.3,0,0,0-.095.263v2.969q0,4.211.368,10.054l-3.106.884-.189-.263Q583.354,339.926,583.354,334.946Z" transform="translate(-578.29 -330.251)"/><path class="a" d="M621.709,341.371l.3.2q-.347,3.59-.347,5.885,0,.9.01,1.305a8.152,8.152,0,0,0,.073.869,1.192,1.192,0,0,0,.216.632.541.541,0,0,0,.416.163,2.849,2.849,0,0,0,1.506-.905l.411.452q-.38.453-.727.805a8.94,8.94,0,0,1-.811.721,3.717,3.717,0,0,1-.984.569,2.884,2.884,0,0,1-1.037.2q-1.148,0-1.337-1.432l-.274-.105a6.761,6.761,0,0,1-4.011,1.6,2.482,2.482,0,0,1-1.453-.432,2.869,2.869,0,0,1-.958-1.126,6.3,6.3,0,0,1-.495-1.427,6.9,6.9,0,0,1-.158-1.458,7.873,7.873,0,0,1,1.321-4.948,4.657,4.657,0,0,1,3.89-1.674,5.955,5.955,0,0,1,3.148.927Zm-2.264,3.5q0-2.779-1.979-2.779a2.53,2.53,0,0,0-1.084.226,2.127,2.127,0,0,0-.8.626,4.6,4.6,0,0,0-.879,1.953q-.116.584-.169,1.1a10.36,10.36,0,0,0-.053,1.053,6.658,6.658,0,0,0,.106,1.2,5.591,5.591,0,0,0,.342,1.148,2.1,2.1,0,0,0,.706.91,1.831,1.831,0,0,0,1.111.342,3.732,3.732,0,0,0,2.526-1.169A41.355,41.355,0,0,0,619.445,344.866Z" transform="translate(-597.79 -336.612)"/><path class="a" d="M651.562,341.371l.305.2q-.348,3.59-.348,5.885,0,.9.01,1.305a8.034,8.034,0,0,0,.074.869,1.188,1.188,0,0,0,.216.632.54.54,0,0,0,.416.163,2.85,2.85,0,0,0,1.505-.905l.411.452q-.379.453-.726.805a9.008,9.008,0,0,1-.811.721,3.725,3.725,0,0,1-.984.569,2.884,2.884,0,0,1-1.037.2q-1.148,0-1.337-1.432l-.274-.105a6.762,6.762,0,0,1-4.011,1.6,2.482,2.482,0,0,1-1.453-.432,2.872,2.872,0,0,1-.958-1.126,6.329,6.329,0,0,1-.5-1.427,6.9,6.9,0,0,1-.158-1.458,7.873,7.873,0,0,1,1.321-4.948,4.657,4.657,0,0,1,3.89-1.674,5.954,5.954,0,0,1,3.148.927Zm-2.263,3.5q0-2.779-1.979-2.779a2.532,2.532,0,0,0-1.084.226,2.129,2.129,0,0,0-.795.626,4.588,4.588,0,0,0-.879,1.953q-.116.584-.169,1.1a10.361,10.361,0,0,0-.052,1.053,6.7,6.7,0,0,0,.105,1.2,5.562,5.562,0,0,0,.342,1.148,2.1,2.1,0,0,0,.705.91,1.833,1.833,0,0,0,1.111.342,3.734,3.734,0,0,0,2.527-1.169A41.468,41.468,0,0,0,649.3,344.866Z" transform="translate(-615.031 -336.612)"/><path class="a" d="M672.488,343.836q0,6.707.126,7.7l-2.179.726-.358-.169q.147-3.463.147-6.253a9.984,9.984,0,0,0-.137-2.106q-.19-.674-.706-.674a2.98,2.98,0,0,0-1.548.642l-.411-.516q.622-.494,1.085-.811a6.872,6.872,0,0,1,1.131-.605,3.118,3.118,0,0,1,1.227-.29,1.5,1.5,0,0,1,1.105.379,1.551,1.551,0,0,1,.432,1l.21.073a8.475,8.475,0,0,1,4.169-1.516,2.5,2.5,0,0,1,1.405.405,2.014,2.014,0,0,1,.837,1.153l.316.105q.1-.053.547-.321t.605-.347q.153-.079.542-.29a4.789,4.789,0,0,1,.61-.289q.221-.079.558-.195a3.489,3.489,0,0,1,.637-.158,4.307,4.307,0,0,1,.6-.042,2.6,2.6,0,0,1,1.426.332,1.979,1.979,0,0,1,.753,1.169,8.952,8.952,0,0,1,.242,2.363q0,.463-.042,1.742t-.042,1.732q0,1.358.885,1.358a2.426,2.426,0,0,0,1.421-.5h.21l.242.453q-.442.421-.61.579t-.626.537a5.819,5.819,0,0,1-.753.548,5,5,0,0,1-.716.326,2.25,2.25,0,0,1-.79.158,1.565,1.565,0,0,1-.595-.105,1.4,1.4,0,0,1-.5-.374,1.849,1.849,0,0,1-.374-.805,5.61,5.61,0,0,1-.131-1.316q0-.547.047-1.826t.047-1.826v-.727q0-.2-.032-.568a4.092,4.092,0,0,0-.084-.584,3.553,3.553,0,0,0-.169-.5,1.284,1.284,0,0,0-.279-.437,1.386,1.386,0,0,0-.416-.268,1.428,1.428,0,0,0-.579-.111,2.7,2.7,0,0,0-1.005.237,6.762,6.762,0,0,0-.958.474q-.385.237-.943.627,0,5.674.126,7.4l-2.137.747-.347-.169q.094-2.4.095-6.253a9.4,9.4,0,0,0-.126-1.885,1.373,1.373,0,0,0-1.369-1.221A5.672,5.672,0,0,0,672.488,343.836Z" transform="translate(-629.767 -336.698)"/><path class="a" d="M728.137,349.911l.232.411a18.379,18.379,0,0,1-2.553,1.537,5.426,5.426,0,0,1-2.384.579,4.232,4.232,0,0,1-4.674-4.748,7.139,7.139,0,0,1,.379-2.321,6.472,6.472,0,0,1,1.1-2,5.092,5.092,0,0,1,1.9-1.421,6.382,6.382,0,0,1,2.653-.531,6.655,6.655,0,0,1,1.51.163,4.627,4.627,0,0,1,1.3.516,2.569,2.569,0,0,1,.953.984,2.994,2.994,0,0,1,.353,1.485.778.778,0,0,1-.621.8q-.063,0-6.948,2.137a3.978,3.978,0,0,0,.352,1.668,3.13,3.13,0,0,0,1.1,1.29,3,3,0,0,0,1.748.516,6.612,6.612,0,0,0,3.274-1.147Zm-6.516-3.379q1.052-.336,2.516-.768a17.324,17.324,0,0,0,1.763-.6.533.533,0,0,0,.353-.495,2.887,2.887,0,0,0-.495-1.663,1.656,1.656,0,0,0-1.464-.727,2.524,2.524,0,0,0-2.047,1.005,4.175,4.175,0,0,0-.537,1.011,5.485,5.485,0,0,0-.295,1.1,7.055,7.055,0,0,0-.078,1.042c0,.077.052.116.158.116a.284.284,0,0,0,.063-.011A.3.3,0,0,1,721.621,346.531Z" transform="translate(-659.413 -336.698)"/><path class="a" d="M755.024,349.911l.232.411a18.381,18.381,0,0,1-2.553,1.537,5.425,5.425,0,0,1-2.384.579,4.233,4.233,0,0,1-4.674-4.748,7.139,7.139,0,0,1,.379-2.321,6.472,6.472,0,0,1,1.1-2,5.092,5.092,0,0,1,1.9-1.421,6.382,6.382,0,0,1,2.653-.531,6.661,6.661,0,0,1,1.511.163,4.623,4.623,0,0,1,1.3.516,2.569,2.569,0,0,1,.953.984,2.994,2.994,0,0,1,.353,1.485.778.778,0,0,1-.621.8q-.063,0-6.948,2.137a3.978,3.978,0,0,0,.352,1.668,3.131,3.131,0,0,0,1.1,1.29,3,3,0,0,0,1.747.516,6.611,6.611,0,0,0,3.274-1.147Zm-6.516-3.379q1.052-.336,2.516-.768a17.324,17.324,0,0,0,1.763-.6.533.533,0,0,0,.353-.495,2.887,2.887,0,0,0-.495-1.663,1.656,1.656,0,0,0-1.464-.727,2.524,2.524,0,0,0-2.047,1.005,4.192,4.192,0,0,0-.537,1.011,5.481,5.481,0,0,0-.295,1.1,7.114,7.114,0,0,0-.079,1.042c0,.077.052.116.158.116a.281.281,0,0,0,.063-.011A.3.3,0,0,1,748.508,346.531Z" transform="translate(-674.941 -336.698)"/><g transform="translate(82.65 1.036)"><path class="a" d="M780.537,347.4q-.188,0-.188-.5v-.335c0-.1-.021-.133-.063-.1a4.658,4.658,0,0,1-2.575.963,3.459,3.459,0,0,1-2.659-1.267,4.472,4.472,0,0,1-1.13-3.087,4.651,4.651,0,0,1,.387-1.895,4.5,4.5,0,0,1,.995-1.46,6.688,6.688,0,0,1,1.35-1,5.6,5.6,0,0,1,2.753-.8,7.038,7.038,0,0,1,.837.042q.1,0,.1-.482v-1.9a2.73,2.73,0,0,0-.147-1q-.074-.167-.523-.272a3.388,3.388,0,0,0-.733-.1q-.115,0-.084-.314c.021-.21.049-.328.084-.356a19.2,19.2,0,0,0,3.831-.754.9.9,0,0,1,.246-.057c.031,0,.082.049.151.136a.634.634,0,0,1,.126.214,8.911,8.911,0,0,0-.23,2.115v9.818a1.222,1.222,0,0,0,.188.8q.188.21.942.21a.405.405,0,0,1,.063.272.7.7,0,0,1-.125.4,15.375,15.375,0,0,0-2.193.409Q780.642,347.395,780.537,347.4Zm-.691-8.1a2.076,2.076,0,0,0-1.136-.319,1.394,1.394,0,0,0-1.062.46,3.86,3.86,0,0,0-.754,2.648,6.21,6.21,0,0,0,.576,2.9,1.6,1.6,0,0,0,2.418.807q.46-.278.461-.5v-5.38Q780.349,339.618,779.846,339.3Z" transform="translate(-773.922 -332.704)"/></g></g><g transform="translate(579.154 231.848)"><path class="a" d="M592.988,257.746a9.257,9.257,0,0,1-4.882,1.094h-7.771v5.274h7.828q4.966,0,7.617-2.469a8.3,8.3,0,0,0,.612-.633,5.09,5.09,0,0,0,.777,1.671,2.966,2.966,0,0,0,2.413,1.431h2.525a10.182,10.182,0,0,0,6.733-2.062,6.844,6.844,0,0,0,1.447-1.657,5.428,5.428,0,0,0,.91,2.288,2.966,2.966,0,0,0,2.413,1.431h.505a5.164,5.164,0,0,0,2.932-.7,8.627,8.627,0,0,0,2.259-3.254q2.861,4.4,7.519,4.4a7.268,7.268,0,0,0,5.976-2.707c.1-.127.193-.264.289-.4a4.86,4.86,0,0,0,.637,1.225,2.966,2.966,0,0,0,2.412,1.431h2.3q4.068,0,8.949-3.226,4.909,3.227,8.978,3.226h4.826a10.183,10.183,0,0,0,6.733-2.062,6.818,6.818,0,0,0,2.469-5.513V244h-3.676v10.464q0,4.376-5.751,4.377h-4.6a14.992,14.992,0,0,1-5.358-.926q5.92-5.61,5.92-10.409a5.711,5.711,0,0,0-2.609-5.022,14.44,14.44,0,0,0-13.845,0,5.7,5.7,0,0,0-2.623,5.022q0,4.8,5.92,10.409a14.769,14.769,0,0,1-5.33.926h-4.049a13.819,13.819,0,0,0,.6-4.208,13,13,0,0,0-2.9-8.823,9.35,9.35,0,0,0-7.393-3.353q-7.154,0-7.743,9.988a13.674,13.674,0,0,1-.982,4.882q-.757,1.515-3.395,1.515h-1.586a7.945,7.945,0,0,0,.324-2.3V244h-3.675v10.464q0,4.376-5.752,4.377h-4.153a9.894,9.894,0,0,0,.7-3.816q0-8.164-13.045-17.731H585.1v6.593q9.651,6.06,9.651,11.194A3.14,3.14,0,0,1,592.988,257.746Zm50.163-5.766a6.424,6.424,0,0,1-1.6-3.549q0-2.357,5.835-2.357,5.863,0,5.864,2.357a6.421,6.421,0,0,1-1.6,3.549,19.475,19.475,0,0,1-4.264,4.026A19.708,19.708,0,0,1,643.151,251.981Zm-17.815-4.194a5.182,5.182,0,0,1,4.349,2.146,7.85,7.85,0,0,1,1.627,4.867,4.521,4.521,0,0,1-1.3,3.24,4.648,4.648,0,0,1-3.521,1.361,5.326,5.326,0,0,1-4.251-1.88,6.438,6.438,0,0,1-1.613-4.32Q620.623,247.787,625.336,247.787Z" transform="translate(-580.335 -234.993)"/><rect class="a" width="4.152" height="4.124" transform="translate(19.246 33.217)"/><rect class="a" width="4.124" height="4.124" transform="translate(26.849 33.217)"/><rect class="a" width="4.152" height="4.124" transform="translate(77.741)"/><rect class="a" width="4.124" height="4.124" transform="translate(85.344)"/></g></g></svg>